<?xml version="1.0" standalone="no"?>
<!DOCTYPE svg PUBLIC "-//W3C//DTD SVG 20010904//EN"
 "http://www.w3.org/TR/2001/REC-SVG-20010904/DTD/svg10.dtd">
<svg version="1.0" xmlns="http://www.w3.org/2000/svg"
 width="300.000000pt" height="300.000000pt" viewBox="0 0 300.000000 300.000000"
 preserveAspectRatio="xMidYMid meet">
<metadata>
Created by potrace 1.11, written by Peter Selinger 2001-2013
</metadata>
<g transform="translate(0.000000,300.000000) scale(0.100000,-0.100000)"
fill="#000000" stroke="none">
<path d="M1092 1563 l3 -878 230 -3 c251 -3 342 6 421 42 98 45 167 133 193
247 17 71 14 365 -4 434 -22 83 -72 155 -129 185 -44 24 -58 40 -36 40 23 0
99 83 119 130 29 67 43 214 32 334 -16 168 -81 267 -207 317 -56 22 -72 24
-342 27 l-282 3 2 -878z m503 584 c40 -40 49 -86 43 -227 -3 -80 -8 -105 -24
-127 -33 -45 -80 -63 -161 -63 l-73 0 0 225 0 225 91 0 c90 0 91 0 124 -33z
m9 -701 c51 -33 61 -74 61 -251 0 -231 -18 -255 -195 -255 l-90 0 0 266 0 266
98 -4 c73 -3 106 -8 126 -22z"/>
</g>
</svg>
